:SAMPLES-PER-SECOND 30
:FULLY-SPECIFIED
:DEGREES
275
root  -46.1521 38.0369 -6.87461 -16.1325 -68.6655 5.31554
RightUpLeg  -15.718 -10.215 -2.35566
RightLeg  9.49917 -4.02826 1.9579
RightFoot  7.47693 0.0512937 -0.161116
RightToes  2.21189e-009 0 -3.6325e-017
Spine  5.17866 -3.61922 1.65156
Spine1  10.3173 -3.47906 -0.820461
HEad  -4.03669 -3.16333 -1.91109
LeftShoulder1  1.06609 -0.152704 -22.828
LeftArm  -2.38105 -47.871 -45.8262
LeftForeArm  10.2299 -26.4298 -5.1354
LeftHand  -0.255338 0.629748 6.21246
RightShoulder  0.240134 -2.37548 14.8585
RightArm  -3.76591 50.4882 41.0843
RightForeArm  -10.9653 35.4297 8.60405
RightHand  -0.748019 4.88137 -8.73537
LeftUpLeg  17.8503 5.38226 -5.45799
LeftLeg  26.6072 -2.75437 -1.2005
LeftFoot  -23.2876 0.363843 2.22004
LeftToes  -3.01956e-010 3.07132e-011 1.04116e-011
276
root  -47.4877 37.7545 -6.46889 -9.62119 -69.072 -1.53278
RightUpLeg  -18.2558 -12.2826 1.26739
RightLeg  17.1684 -0.399482 1.04078
RightFoot  9.03124 0.70366 -3.6363
RightToes  2.21189e-009 0 -3.6325e-017
Spine  6.31931 -3.96349 5.675
Spine1  9.38205 -3.32906 -1.07218
HEad  -3.85911 -3.28583 -2.59734
LeftShoulder1  1.17059 -0.457651 -23.2892
LeftArm  -2.40503 -50.3086 -45.8991
LeftForeArm  10.0145 -25.7949 -5.00415
LeftHand  -0.235459 0.853888 6.00351
RightShoulder  0.302261 -2.04948 14.1229
RightArm  -4.20618 52.973 40.3554
RightForeArm  -14.3782 32.0345 7.81639
RightHand  -0.739374 4.94417 -8.58601
LeftUpLeg  14.3531 6.37882 -1.14082
LeftLeg  37.9667 -4.69995 -3.62403
LeftFoot  -20.5996 -0.108278 -3.3574
LeftToes  -3.01956e-010 3.07132e-011 1.04116e-011
277
root  -48.6715 37.4974 -6.12855 -1.93301 -70.3485 -9.00278
RightUpLeg  -20.5586 -12.8423 5.26508
RightLeg  23.2995 1.23372 0.281853
RightFoot  6.49379 0.958399 -5.81974
RightToes  2.21189e-009 0 -3.6325e-017
Spine  7.49107 -3.94246 10.4821
Spine1  8.65728 -2.35037 -2.64332
HEad  -5.26339 -3.57171 -2.49714
LeftShoulder1  1.24931 -0.93304 -21.7884
LeftArm  -3.25849 -52.3898 -46.8263
LeftForeArm  8.94599 -24.9636 -4.87469
LeftHand  -0.220686 0.453628 5.18701
RightShoulder  0.334247 -1.91784 14.4642
RightArm  -4.77121 56.2657 38.8004
RightForeArm  -15.898 28.2228 6.90341
RightHand  -0.700517 4.65968 -8.36528
LeftUpLeg  7.60158 7.99269 3.2694
LeftLeg  51.427 -4.80024 -5.81503
LeftFoot  -10.2304 0.134603 -8.4966
LeftToes  -3.01956e-010 3.07132e-011 1.04116e-011
278
root  -49.656 37.3201 -5.86913 2.72917 -70.1039 -13.9959
RightUpLeg  -20.8846 -13.7334 6.95651
RightLeg  27.3038 1.36321 0.513874
RightFoot  3.34877 0.881891 -6.62045
RightToes  2.21189e-009 0 -3.6325e-017
Spine  9.9398 -4.2489 11.7314
Spine1  8.03367 -2.51313 -1.05976
HEad  -7.2106 -3.49198 -2.28826
LeftShoulder1  1.32016 -1.27993 -21.1837
LeftArm  -3.38532 -55.2036 -46.9912
LeftForeArm  5.98787 -23.5512 -4.73911
LeftHand  -0.183611 1.37633 5.16745
RightShoulder  0.464069 -1.19979 13.3641
RightArm  -6.27572 59.5296 37.2295
RightForeArm  -14.639 23.7631 5.76726
RightHand  -0.652055 4.83652 -7.68624
LeftUpLeg  -0.180344 7.26232 5.16457
LeftLeg  63.4813 -2.28572 -4.3262
LeftFoot  4.11996 1.08179 -8.42605
LeftToes  -3.01956e-010 3.07132e-011 1.04116e-011
279
root  -50.5729 37.3186 -5.61389 4.67947 -69.9953 -16.2808
RightUpLeg  -20.0005 -14.3772 7.49328
RightLeg  29.4077 1.7032 0.784309
RightFoot  0.668555 0.650507 -6.13202
RightToes  2.21189e-009 0 -3.6325e-017
Spine  12.2379 -4.40996 12.2939
Spine1  7.3575 -2.46361 -0.149433
HEad  -8.85139 -3.57446 -1.60749
LeftShoulder1  1.48267 -1.93762 -20.8744
LeftArm  -4.23718 -57.5644 -47.072
LeftForeArm  5.62045 -22.3011 -4.58528
LeftHand  -0.145421 2.13567 4.89702
RightShoulder  0.551277 -0.579041 11.7864
RightArm  -7.17 62.3983 36.1652
RightForeArm  -15.2743 18.5965 4.67682
RightHand  -0.629872 5.07436 -7.27556
LeftUpLeg  -6.55947 6.35227 5.7864
LeftLeg  70.988 -1.03317 -2.603
LeftFoot  8.38867 0.8252 -4.8508
LeftToes  -3.01956e-010 3.07132e-011 1.04116e-011
280
root  -51.5461 37.5964 -5.29492 5.99525 -71.6051 -17.2508
RightUpLeg  -18.3663 -13.4935 7.46886
RightLeg  29.2249 2.30984 1.14394
RightFoot  -0.888796 0.530795 -5.86377
RightToes  2.21189e-009 0 -3.6325e-017
Spine  13.3054 -3.98207 12.8445
Spine1  7.10477 -1.63998 -1.33314
HEad  -9.98219 -3.53318 -0.583073
LeftShoulder1  1.57932 -2.64808 -19.1332
LeftArm  -5.17715 -59.0828 -46.5041
LeftForeArm  3.78379 -21.3797 -4.64743
LeftHand  -0.110003 3.11555 4.93854
RightShoulder  0.614439 -0.161185 11.3202
RightArm  -7.79876 65.076 35.9117
RightForeArm  -16.5261 13.8172 4.1854
RightHand  -0.608706 5.11581 -7.02789
LeftUpLeg  -12.1009 6.78015 5.72625
LeftLeg  74.0437 -1.02385 -3.02853
LeftFoot  4.941 0.252181 -2.0383
LeftToes  -3.01956e-010 3.07132e-011 1.04116e-011
281
root  -52.4979 37.9619 -4.93902 7.23668 -73.3937 -17.6658
RightUpLeg  -16.7902 -12.3505 7.17186
RightLeg  28.1317 2.96349 1.46379
RightFoot  -1.76374 0.467771 -5.71401
RightToes  2.21189e-009 0 -3.6325e-017
Spine  13.5556 -3.49727 13.1963
Spine1  6.94674 -0.968775 -2.35914
HEad  -10.5032 -3.33759 -0.341678
LeftShoulder1  1.62641 -2.90574 -18.8351
LeftArm  -5.40933 -60.6064 -45.6209
LeftForeArm  0.979608 -20.0262 -4.81185
LeftHand  -0.0773087 3.93282 4.74769
RightShoulder  0.708748 0.557899 10.2159
RightArm  -8.9395 66.9543 36.417
RightForeArm  -17.743 9.49651 3.85339
RightHand  -0.564894 5.45703 -6.32633
LeftUpLeg  -16.7721 6.76808 5.30287
LeftLeg  72.3871 -1.06671 -2.84133
LeftFoot  3.88008 0.264202 -2.12732
LeftToes  -3.01956e-010 3.07132e-011 1.04116e-011
282
root  -53.436 38.3554 -4.55099 8.4557 -74.937 -17.9639
RightUpLeg  -14.9669 -11.4227 6.65045
RightLeg  26.3192 3.67276 1.8553
RightFoot  -2.43979 0.400802 -5.35621
RightToes  2.21189e-009 0 -3.6325e-017
Spine  13.4332 -3.06214 13.8146
Spine1  6.83362 -0.300237 -3.84906
HEad  -11.0986 -3.23469 0.402375
LeftShoulder1  1.67436 -3.27909 -18.0963
LeftArm  -6.63565 -61.4636 -45.2258
LeftForeArm  0.253821 -18.8279 -4.87689
LeftHand  -0.0385488 4.9433 4.27988
RightShoulder  0.745782 0.874428 9.74911
RightArm  -9.93291 68.6182 36.3746
RightForeArm  -18.2714 5.95255 3.48747
RightHand  -0.465471 4.56651 -5.6954
LeftUpLeg  -20.3514 5.88288 4.80584
LeftLeg  67.1668 -1.32595 -2.74604
LeftFoot  1.9629 0.023656 -0.305567
LeftToes  -3.01956e-010 3.07132e-011 1.04116e-011
283
root  -54.3482 38.7466 -4.15673 9.84622 -76.848 -18.9112
RightUpLeg  -12.5318 -9.80782 5.92989
RightLeg  24.1292 4.04649 2.30745
RightFoot  -2.78224 0.368829 -5.17194
RightToes  2.21189e-009 0 -3.6325e-017
Spine  13.9611 -2.43697 14.1069
Spine1  6.36527 0.471603 -4.84259
HEad  -11.0595 -3.3901 0.371839
LeftShoulder1  1.70176 -3.57138 -17.4042
LeftArm  -7.29944 -62.6687 -44.6167
LeftForeArm  -0.816806 -17.1558 -5.05868
LeftHand  -0.0259018 5.43736 3.56409
RightShoulder  0.768809 1.1554 9.17629
RightArm  -10.8983 69.8778 36.1678
RightForeArm  -20.7787 2.99975 3.24539
RightHand  -0.564961 5.28019 -6.44608
LeftUpLeg  -21.7881 4.91251 4.93688
LeftLeg  58.508 -1.60438 -2.33443
LeftFoot  0.277544 -0.0293456 0.252438
LeftToes  -3.01956e-010 3.07132e-011 1.04116e-011
284
root  -55.2197 39.0257 -3.74533 12.1154 -78.8446 -20.3146
RightUpLeg  -11.0398 -8.13157 5.31902
RightLeg  22.5643 4.48979 2.6367
RightFoot  -3.34923 0.325257 -4.97502
RightToes  2.21189e-009 0 -3.6325e-017
Spine  14.0238 -1.76598 13.7129
Spine1  6.03175 0.932464 -4.85373
HEad  -11.6011 -2.94546 -0.167149
LeftShoulder1  1.70503 -3.61361 -17.3088
LeftArm  -9.55946 -63.5265 -43.412
LeftForeArm  -0.290605 -15.7825 -4.94632
LeftHand  -0.0178766 6.01114 2.00564
RightShoulder  0.831634 1.83887 8.09005
RightArm  -13.1991 70.7164 35.5179
RightForeArm  -18.9115 0.928584 2.36874
RightHand  -0.340682 4.37401 -4.31135
LeftUpLeg  -22.2302 3.66313 5.34291
LeftLeg  47.1517 -2.02023 -1.87208
LeftFoot  -0.143745 0.0599317 -0.599759
LeftToes  -3.01956e-010 3.07132e-011 1.04116e-011
285
root  -56.0472 39.2656 -3.32184 17.0154 -80.6918 -24.4673
RightUpLeg  -9.50372 -6.9141 5.08601
RightLeg  20.8234 5.26707 2.88657
RightFoot  -3.72524 0.303168 -4.92938
RightToes  2.21189e-009 0 -3.6325e-017
Spine  13.6476 -1.17348 14.2901
Spine1  6.6314 1.72133 -6.04546
HEad  -12.8942 -2.84152 0.198958
LeftShoulder1  1.79309 -4.22989 -16.4722
LeftArm  -10.9828 -64.5866 -41.3916
LeftForeArm  -1.8995 -14.4073 -5.13627
LeftHand  -0.00945216 6.72372 2.10143
RightShoulder  0.833916 2.007 7.60621
RightArm  -15.8457 71.4976 33.8957
RightForeArm  -19.6352 -0.381022 1.77233
RightHand  -0.1854 2.10533 -3.07938
LeftUpLeg  -21.0969 2.07295 6.55861
LeftLeg  33.496 -3.4092 -2.08717
LeftFoot  0.72972 0.161589 -1.57846
LeftToes  -3.01956e-010 3.07132e-011 1.04116e-011
